<svg width="22" height="24" viewBox="0 0 22 24" fill="none" xmlns="http://www.w3.org/2000/svg"><g clip-path="url(#clip0_43_168)"><path d="M14.312 17.055c-4.423 3.167-9.988 1.774-12.706-2.302-2.645-3.966-1.964-9.357 1.611-12.545 3.476-3.1 8.739-2.912 12.072.404 3.474 3.456 3.86 9.496.156 13.44.088.097.173.197.263.291l5.837 6.076c.085.089.173.173.252.267.276.333.27.782-.01 1.08-.28.298-.72.313-1.036.032-.082-.072-.154-.156-.23-.235-1.989-2.07-3.978-4.138-5.964-6.21-.084-.087-.154-.189-.242-.298h-.003zM1.072 9.412c.006 4.581 3.576 8.287 7.975 8.28 4.393-.008 7.967-3.738 7.958-8.308-.008-4.572-3.591-8.288-7.984-8.279-4.4.01-7.953 3.723-7.947 8.307h-.002z" fill="#203061"/></g><defs><clipPath id="clip0_43_168"><path fill="#fff" d="M0 0h22v24H0z"/></clipPath></defs></svg>