<svg width="57" height="56" viewBox="0 0 57 56" fill="none" xmlns="http://www.w3.org/2000/svg"><g clip-path="url(#clip0_43_184)" fill="#203061"><path d="M9.434 30.367H.001V25.64h9.433v4.727zM57 25.628v4.73h-9.453v-4.73h9.452zM14.508 14.832c-.944 1.307-1.851 2.56-2.798 3.868-2.575-1.88-5.127-3.744-7.695-5.617l2.798-3.865c2.56 1.87 5.1 3.72 7.695 5.616v-.002zM6.81 46.78c-.953-1.32-1.858-2.573-2.795-3.868 2.566-1.872 5.108-3.73 7.693-5.619l2.798 3.868c-2.574 1.88-5.125 3.74-7.698 5.617l.002.002zM24.878 9.09c-1.523.496-2.983.976-4.524 1.479l-2.942-9.085C18.909.994 20.383.51 21.936 0l2.942 9.087v.002zm11.753 1.474l-4.526-1.48L35.04-.002l4.526 1.472c-.98 3.033-1.948 6.026-2.937 9.091l.002.003zM21.94 55.993c-1.533-.5-2.993-.978-4.526-1.477.98-3.03 1.946-6.024 2.938-9.087l4.526 1.474-2.938 9.09zM35.045 56c-.992-3.063-1.955-6.046-2.94-9.087l4.524-1.482c.977 3.025 1.948 6.017 2.942 9.087-1.504.492-2.978.977-4.526 1.484V56zM52.97 13.086c-2.582 1.884-5.122 3.74-7.695 5.619l-2.797-3.868c2.563-1.873 5.09-3.718 7.692-5.617.923 1.273 1.835 2.534 2.8 3.868v-.002zM42.475 41.161c.944-1.307 1.852-2.559 2.798-3.868l7.695 5.617c-.941 1.302-1.849 2.556-2.798 3.865l-7.695-5.614z"/></g><defs><clipPath id="clip0_43_184"><path fill="#fff" d="M0 0h57v56H0z"/></clipPath></defs></svg>