<svg width="37" height="37" viewBox="0 0 37 37" fill="none" xmlns="http://www.w3.org/2000/svg">
<g clip-path="url(#clip0_1_32)">
<path d="M20.5059 18.4943C19.4035 17.3454 18.3236 16.2198 17.2437 15.0946C16.1251 13.9287 15.0035 12.7654 13.8886 11.5958C13.4678 11.1543 13.3842 10.6032 13.6412 10.1092C13.8878 9.63512 14.3882 9.35214 14.931 9.46177C15.1941 9.51487 15.4843 9.6537 15.6687 9.84457C18.1686 12.427 20.6543 15.0231 23.138 17.6212C23.6516 18.1585 23.6211 18.8758 23.0724 19.4494C21.1428 21.4672 19.2089 23.4807 17.2769 25.4961C16.7749 26.0198 16.2748 26.5454 15.7712 27.0673C15.1869 27.6728 14.4075 27.728 13.8777 27.2053C13.3431 26.6779 13.3731 25.9383 13.956 25.3307C16.0563 23.1414 18.1572 20.953 20.2577 18.764C20.3331 18.6854 20.4053 18.6039 20.5062 18.4943H20.5059Z" fill="black"/>
<path d="M18.5001 37C16.0032 37 13.5801 36.5108 11.2987 35.5458C9.0957 34.6141 7.11723 33.2801 5.41856 31.5814C3.71988 29.8828 2.38621 27.9043 1.45419 25.7013C0.489242 23.4199 0 20.997 0 18.5001C0 16.0032 0.489242 13.5801 1.45419 11.2987C2.38595 9.0957 3.71988 7.11723 5.41856 5.41856C7.11723 3.71988 9.0957 2.38621 11.2987 1.45419C13.5801 0.489242 16.003 0 18.5001 0C20.9973 0 23.4202 0.489242 25.7015 1.45419C27.9046 2.38595 29.883 3.71988 31.5817 5.41856C33.2804 7.11723 34.6141 9.0957 35.5461 11.2987C36.511 13.5801 37.0003 16.003 37.0003 18.5001C37.0003 20.9973 36.511 23.4202 35.5461 25.7015C34.6143 27.9046 33.2804 29.883 31.5817 31.5817C29.883 33.2804 27.9046 34.6141 25.7015 35.5461C23.4202 36.511 20.997 37.0003 18.5001 37.0003V37ZM18.5001 2.07058C16.2817 2.07058 14.1301 2.50488 12.1055 3.36125C10.1493 4.18868 8.39197 5.37343 6.88283 6.88257C5.37369 8.3917 4.18895 10.1488 3.36151 12.1052C2.50514 14.1301 2.07085 16.2817 2.07085 18.4999C2.07085 20.718 2.50514 22.8699 3.36151 24.8945C4.18895 26.8507 5.37369 28.608 6.88283 30.1172C8.39197 31.6263 10.149 32.8111 12.1055 33.6385C14.1304 34.4949 16.282 34.9292 18.5001 34.9292C20.7183 34.9292 22.8701 34.4949 24.8948 33.6385C26.851 32.8111 28.6083 31.6263 30.1174 30.1172C31.6266 28.608 32.8113 26.851 33.6388 24.8945C34.4951 22.8696 34.9294 20.718 34.9294 18.4999C34.9294 16.2817 34.4951 14.1299 33.6388 12.1052C32.8113 10.149 31.6266 8.3917 30.1174 6.88257C28.6083 5.37343 26.8512 4.18868 24.8948 3.36125C22.8699 2.50488 20.7183 2.07058 18.5001 2.07058Z" fill="black"/>
</g>
<defs>
<clipPath id="clip0_1_32">
<rect width="37" height="37" fill="white"/>
</clipPath>
</defs>
</svg>
