<svg width="37" height="37" viewBox="0 0 37 37" fill="none" xmlns="http://www.w3.org/2000/svg">
<g clip-path="url(#clip0_1_36)">
<path d="M16.4941 18.5057C17.5965 19.6546 18.6764 20.7802 19.7563 21.9054C20.8749 23.0713 21.9965 24.2346 23.1114 25.4042C23.5322 25.8457 23.6158 26.3968 23.3588 26.8908C23.1122 27.3649 22.6118 27.6479 22.069 27.5382C21.8059 27.4851 21.5157 27.3463 21.3313 27.1554C18.8314 24.573 16.3457 21.9769 13.862 19.3788C13.3484 18.8415 13.3789 18.1242 13.9276 17.5506C15.8572 15.5328 17.7911 13.5193 19.7231 11.5039C20.2251 10.9802 20.7252 10.4546 21.2288 9.93269C21.8131 9.32718 22.5925 9.27197 23.1223 9.79466C23.6569 10.3221 23.6269 11.0617 23.044 11.6693C20.9437 13.8586 18.8428 16.047 16.7423 18.236C16.6669 18.3146 16.5947 18.3961 16.4938 18.5057L16.4941 18.5057Z" fill="black"/>
<path d="M18.4999 -1.61733e-06C20.9968 -1.39905e-06 23.4199 0.489241 25.7013 1.45418C27.9043 2.38595 29.8828 3.71989 31.5814 5.41856C33.2801 7.11723 34.6138 9.0957 35.5458 11.2987C36.5108 13.5801 37 16.003 37 18.4999C37 20.9968 36.5108 23.4199 35.5458 25.7013C34.6141 27.9043 33.2801 29.8828 31.5814 31.5814C29.8828 33.2801 27.9043 34.6138 25.7013 35.5458C23.4199 36.5108 20.997 37 18.4999 37C16.0027 37 13.5798 36.5108 11.2985 35.5458C9.09544 34.614 7.11697 33.2801 5.4183 31.5814C3.71962 29.8828 2.38595 27.9043 1.45392 25.7012C0.488977 23.4199 -0.000261815 20.997 -0.000261597 18.4999C-0.000261378 16.0027 0.488978 13.5798 1.45392 11.2985C2.38569 9.09543 3.71962 7.11697 5.4183 5.41829C7.11697 3.71962 9.09544 2.38595 11.2985 1.45392C13.5798 0.488973 16.003 -0.00026505 18.4999 -0.000264831L18.4999 -1.61733e-06ZM18.4999 34.9294C20.7183 34.9294 22.8699 34.4951 24.8945 33.6388C26.8507 32.8113 28.608 31.6266 30.1172 30.1174C31.6263 28.6083 32.8111 26.8512 33.6385 24.8948C34.4949 22.8699 34.9292 20.7183 34.9292 18.5001C34.9292 16.282 34.4949 14.1301 33.6385 12.1055C32.8111 10.1493 31.6263 8.39197 30.1172 6.88283C28.608 5.37369 26.851 4.18895 24.8945 3.36151C22.8696 2.50514 20.7181 2.07085 18.4999 2.07084C16.2817 2.07084 14.1299 2.50514 12.1052 3.36151C10.149 4.18895 8.39171 5.37369 6.88257 6.88283C5.37343 8.39197 4.18869 10.149 3.36125 12.1055C2.50488 14.1304 2.07059 16.282 2.07058 18.5001C2.07058 20.7183 2.50488 22.8701 3.36125 24.8948C4.18869 26.851 5.37343 28.6083 6.88257 30.1174C8.3917 31.6266 10.1488 32.8113 12.1052 33.6388C14.1301 34.4951 16.2817 34.9294 18.4999 34.9294Z" fill="black"/>
</g>
<defs>
<clipPath id="clip0_1_36">
<rect width="37" height="37" fill="white" transform="translate(37 37) rotate(-180)"/>
</clipPath>
</defs>
</svg>
