<svg width="444" height="118" viewBox="0 0 444 118" fill="none" xmlns="http://www.w3.org/2000/svg">
<g clip-path="url(#clip0_1_340)">
<path d="M0 118V41.9923H24.9833C28.989 41.9923 32.6258 42.5729 35.8937 43.7342C39.1616 44.8954 41.955 46.5679 44.2742 48.7486C46.5933 50.9292 48.3853 53.5353 49.6503 56.5605C50.9153 59.5889 51.5478 62.967 51.5478 66.6948V93.1919C51.5478 96.9231 50.9153 100.318 49.6503 103.379C48.3853 106.441 46.5933 109.043 44.2742 111.191C41.955 113.339 39.1616 115.011 35.8937 116.205C32.6258 117.403 28.989 118 24.9833 118H0ZM24.9833 103.221C28.2149 103.221 30.8173 102.307 32.784 100.476C34.7506 98.6484 35.7356 96.2204 35.7356 93.1919V66.6948C35.7356 63.739 34.7506 61.3472 32.784 59.5163C30.814 57.6854 28.2149 56.7716 24.9833 56.7716H15.8122V103.221H24.9833Z" fill="#231F20"/>
<path d="M67.6762 118V41.9923H115.64V55.7159H83.4884V72.1843H111.95V85.9079H83.4884V104.276H115.64V118H67.6762Z" fill="#231F20"/>
<path d="M131.765 118V41.9923H157.17C161.107 41.9923 164.654 42.4509 167.817 43.3647C170.979 44.2818 173.667 45.5816 175.881 47.2706C178.095 48.9597 179.798 51.0017 180.994 53.3935C182.186 55.7852 182.786 58.4606 182.786 61.4165C182.786 66.1307 181.468 69.9311 178.833 72.8177C176.197 75.7042 172.561 77.357 167.922 77.7793V78.9405C172.982 79.2935 176.952 80.9826 179.834 84.0077C182.717 87.0328 184.156 91.0113 184.156 95.9367C184.156 99.3148 183.54 102.36 182.311 105.068C181.083 107.78 179.324 110.102 177.041 112.036C174.754 113.972 171.981 115.45 168.713 116.469C165.445 117.492 161.808 118 157.802 118H131.765ZM147.05 54.6603V72.2898H156.959C159.98 72.2898 162.388 71.4816 164.18 69.8618C165.972 68.242 166.868 66.0977 166.868 63.4223C166.868 60.7468 165.989 58.619 164.233 57.0355C162.474 55.452 160.049 54.6603 156.959 54.6603H147.05ZM147.05 84.9578V105.332H157.17C160.685 105.332 163.406 104.451 165.34 102.693C167.27 100.935 168.239 98.434 168.239 95.1977C168.239 91.9614 167.27 89.4443 165.34 87.6497C163.406 85.8551 160.682 84.9578 157.17 84.9578H147.05Z" fill="#231F20"/>
<path d="M192.062 118L212.302 41.9923H233.385L253.203 118H237.18L233.174 100.582H211.986L207.98 118H192.062ZM230.222 88.2303L224.425 63.2111C224.214 62.1555 224.003 61.0107 223.792 59.7802C223.581 58.5497 223.407 57.3687 223.265 56.2438C223.123 55.0495 222.985 53.8157 222.843 52.5489H222.211C222.069 53.8157 221.895 55.0462 221.684 56.2438C221.542 57.372 221.384 58.5497 221.209 59.7802C221.032 61.0107 220.804 62.1555 220.524 63.2111L214.832 88.2303H230.222Z" fill="#231F20"/>
<path d="M260.582 41.9923H316.452V56.7716H296.423V118H280.611V56.7716H260.582V41.9923Z" fill="#231F20"/>
<path d="M323.831 118L344.07 41.9923H365.153L384.971 118H368.948L364.942 100.582H343.754L339.748 118H323.831ZM361.991 88.2303L356.193 63.2111C355.982 62.1555 355.771 61.0107 355.56 59.7802C355.35 58.5497 355.175 57.3687 355.033 56.2438C354.892 55.0495 354.753 53.8157 354.612 52.5489H353.979C353.838 53.8157 353.663 55.0462 353.452 56.2438C353.31 57.372 353.152 58.5497 352.978 59.7802C352.8 61.0107 352.573 62.1555 352.293 63.2111L346.6 88.2303H361.991Z" fill="#231F20"/>
<path d="M396.563 118V104.276H412.376V55.7159H396.563V41.9923H444V55.7159H428.188V104.276H444V118H396.563Z" fill="#231F20"/>
<path d="M10.7786 7.24448V8.47829H5.15873V7.35005L8.00493 4.28533C8.33764 3.92244 8.58141 3.58595 8.73295 3.28245C8.88777 2.97895 8.96354 2.67544 8.96354 2.37524C8.96354 1.99586 8.85483 1.70885 8.63741 1.51421C8.42 1.31958 8.10046 1.22391 7.68209 1.22391C6.93101 1.22391 6.17664 1.51421 5.41568 2.09153L4.90508 0.976485C5.23779 0.682879 5.66274 0.448654 6.17993 0.270511C6.69712 0.0923674 7.21761 0.0032959 7.73809 0.0032959C8.57482 0.0032959 9.24025 0.207831 9.73109 0.620199C10.2219 1.03257 10.4657 1.58679 10.4657 2.28287C10.4657 2.76451 10.3636 3.21977 10.156 3.64203C9.9518 4.0643 9.60262 4.53935 9.11178 5.06058L7.05949 7.24448H10.7721H10.7786Z" fill="#231F20"/>
<path d="M13.8983 7.48859C13.3778 6.75622 13.1142 5.69066 13.1142 4.28861C13.1142 2.88656 13.3745 1.84739 13.8983 1.11832C14.422 0.389254 15.1764 0.0230713 16.1647 0.0230713C17.1529 0.0230713 17.9073 0.385955 18.4311 1.11502C18.9549 1.84409 19.2151 2.89975 19.2151 4.28531C19.2151 5.67087 18.9549 6.74302 18.4311 7.47869C17.9073 8.21435 17.1529 8.58384 16.1647 8.58384C15.1764 8.58384 14.422 8.21765 13.8983 7.48529V7.48859ZM17.3374 6.64406C17.5812 6.14921 17.7064 5.36406 17.7064 4.28531C17.7064 3.20655 17.5845 2.4379 17.3374 1.95295C17.0936 1.46471 16.7016 1.22389 16.1647 1.22389C15.6277 1.22389 15.2357 1.46801 14.9919 1.95295C14.7482 2.4412 14.623 3.21645 14.623 4.28531C14.623 5.35417 14.7449 6.14921 14.9919 6.64406C15.2357 7.1389 15.6277 7.38632 16.1647 7.38632C16.7016 7.38632 17.0936 7.1389 17.3374 6.64406Z" fill="#231F20"/>
<path d="M27.3946 7.24448V8.47829H21.7747V7.35005L24.6209 4.28533C24.9536 3.92244 25.1974 3.58595 25.3489 3.28245C25.5038 2.97895 25.5795 2.67544 25.5795 2.37524C25.5795 1.99586 25.4708 1.70885 25.2534 1.51421C25.036 1.31958 24.7164 1.22391 24.2981 1.22391C23.547 1.22391 22.7926 1.51421 22.0317 2.09153L21.5211 0.976485C21.8538 0.682879 22.2787 0.448654 22.7959 0.270511C23.3131 0.0923674 23.8336 0.0032959 24.3541 0.0032959C25.1908 0.0032959 25.8562 0.207831 26.3471 0.620199C26.8379 1.03257 27.0817 1.58679 27.0817 2.28287C27.0817 2.76451 26.9796 3.21977 26.772 3.64203C26.5678 4.0643 26.2186 4.53935 25.7278 5.06058L23.6755 7.24448H27.388H27.3946Z" fill="#231F20"/>
<path d="M36.0156 6.84204H34.8428V8.48162H33.3473V6.84204H29.7171V5.7138L33.6075 0.105591H34.8396V5.65112H36.0123V6.83874L36.0156 6.84204ZM33.3473 5.65442V2.45774L31.1402 5.65112H33.3473V5.65442Z" fill="#231F20"/>
<path d="M50.9812 0.105591V8.47832H49.6306V2.94598L47.4234 7.12575H46.4022L44.1852 3.00536L44.1984 8.48162H42.8478V0.105591H44.0568L46.926 5.58184L49.7854 0.105591H50.9845H50.9812Z" fill="#231F20"/>
<path d="M55.3822 6.84204V8.48162H53.722V6.84204H55.3822Z" fill="#231F20"/>
<path d="M63.542 8.32653C62.982 8.15169 62.5076 7.90757 62.1189 7.59087L62.6295 6.47582C63.0314 6.78593 63.4563 7.01025 63.9044 7.15211C64.3524 7.29396 64.8366 7.36654 65.3571 7.36654C65.9336 7.36654 66.3783 7.26427 66.6913 7.06304C67.0042 6.8618 67.159 6.57809 67.159 6.21521C67.159 5.89851 67.0141 5.65769 66.7275 5.48944C66.4376 5.32449 65.9599 5.16614 65.2879 5.01439C64.5928 4.86264 64.0262 4.69109 63.5914 4.49316C63.1566 4.29522 62.8271 4.0412 62.6064 3.7344C62.3857 3.4276 62.2737 3.03502 62.2737 2.55998C62.2737 2.08493 62.4088 1.62967 62.6756 1.2404C62.9457 0.851122 63.3246 0.550918 63.8154 0.333187C64.3062 0.115457 64.8696 0.0065918 65.5119 0.0065918C66.0983 0.0065918 66.655 0.0956633 67.1854 0.273806C67.7158 0.45195 68.1506 0.696072 68.4899 1.00287L67.9793 2.11792C67.2348 1.52411 66.4145 1.2272 65.5119 1.2272C64.975 1.2272 64.55 1.33607 64.2371 1.5538C63.9241 1.77153 63.7693 2.07503 63.7693 2.46101C63.7693 2.7843 63.9076 3.03502 64.1844 3.20987C64.4611 3.38471 64.9321 3.54636 65.5943 3.69811C66.2992 3.85646 66.8691 4.03131 67.3073 4.22594C67.7454 4.42058 68.0814 4.668 68.3153 4.96821C68.5492 5.26841 68.6645 5.64779 68.6645 6.10964C68.6645 6.60778 68.5327 7.04654 68.2659 7.42262C68.0023 7.7987 67.6169 8.08901 67.1162 8.29025C66.6155 8.49148 66.0225 8.59375 65.3439 8.59375C64.7048 8.59375 64.102 8.50798 63.542 8.33313V8.32653Z" fill="#231F20"/>
<path d="M71.2603 0.105591H74.9136C75.8063 0.105591 76.5014 0.329919 77.0021 0.775277C77.4995 1.22393 77.7499 1.85073 77.7499 2.65898C77.7499 3.46722 77.4995 4.09732 77.0021 4.54597C76.5047 4.99793 75.8096 5.22226 74.9136 5.22226H72.7921V8.47502H71.2636V0.105591H71.2603ZM74.7225 4.05113C75.7734 4.05113 76.3004 3.59258 76.3004 2.67217C76.3004 2.20372 76.1687 1.85733 75.9084 1.633C75.6482 1.40867 75.2529 1.29321 74.7225 1.29321H72.7888V4.04783H74.7225V4.05113Z" fill="#231F20"/>
<path d="M84.9346 6.51874H80.8662L80.0229 8.47832H78.4812L82.2663 0.105591H83.5115L87.2932 8.47832H85.7746L84.9313 6.51874H84.9346ZM84.424 5.33112L82.8955 1.76826L81.367 5.33112H84.4273H84.424Z" fill="#231F20"/>
<path d="M89.3686 0.105591H90.8971V7.21812H94.7974V8.47832H89.3653V0.105591H89.3686Z" fill="#231F20"/>
<path d="M97.1363 0.105591H98.6648V8.47832H97.1363V0.105591Z" fill="#231F20"/>
<path d="M103.264 8.06262C102.667 7.71294 102.206 7.21479 101.883 6.5649C101.56 5.91501 101.396 5.15625 101.396 4.28533C101.396 3.41441 101.557 2.65565 101.877 2.01236C102.196 1.36576 102.657 0.870922 103.257 0.521233C103.857 0.171545 104.565 0 105.378 0C106.192 0 106.897 0.174844 107.497 0.521233C108.093 0.870922 108.551 1.36576 108.874 2.01236C109.193 2.65895 109.355 3.41441 109.355 4.28533C109.355 5.15625 109.193 5.91501 108.867 6.5649C108.544 7.21479 108.083 7.71294 107.487 8.06262C106.89 8.41231 106.189 8.58386 105.382 8.58386C104.575 8.58386 103.863 8.40901 103.264 8.06262ZM107.177 6.5682C107.609 6.03707 107.823 5.27831 107.823 4.28863C107.823 3.29895 107.609 2.54019 107.177 2.01566C106.746 1.48782 106.146 1.22721 105.382 1.22721C104.617 1.22721 104.005 1.49112 103.573 2.01566C103.142 2.54349 102.928 3.29895 102.928 4.28863C102.928 5.27831 103.142 6.03707 103.573 6.5682C104.005 7.09933 104.608 7.36325 105.382 7.36325C106.156 7.36325 106.749 7.09933 107.177 6.5682Z" fill="#231F20"/>
<path d="M122.09 7.24451V8.47831H116.931V7.24451H118.746V1.85403L117.31 2.72165L116.704 1.60661L119.181 0.108887H120.272V7.24781H122.087L122.09 7.24451Z" fill="#231F20"/>
<path d="M129.861 4.89893C130.125 5.25192 130.26 5.68738 130.26 6.21191C130.26 6.94098 129.993 7.51499 129.459 7.94056C128.925 8.36282 128.201 8.57725 127.282 8.57725C126.722 8.57725 126.181 8.49148 125.664 8.31664C125.147 8.14179 124.719 7.90427 124.376 7.60406L124.887 6.48902C125.615 7.06634 126.392 7.35664 127.222 7.35664C127.753 7.35664 128.148 7.25108 128.408 7.04324C128.668 6.83211 128.8 6.51541 128.8 6.08655C128.8 5.65769 128.668 5.35748 128.402 5.15295C128.138 4.95171 127.726 4.84944 127.173 4.84944H126.069V3.63873H126.972C128.056 3.63873 128.596 3.22966 128.596 2.41482C128.596 2.03544 128.481 1.74184 128.247 1.5373C128.013 1.33277 127.684 1.2272 127.255 1.2272C126.883 1.2272 126.507 1.29978 126.122 1.44823C125.74 1.59338 125.364 1.81112 125.002 2.09482L124.491 0.979781C124.824 0.679577 125.249 0.442053 125.766 0.267209C126.283 0.0923644 126.811 0.0065918 127.351 0.0065918C128.174 0.0065918 128.83 0.207828 129.321 0.607C129.812 1.00617 130.055 1.5472 130.055 2.22678C130.049 2.69523 129.927 3.101 129.693 3.44409C129.459 3.78718 129.136 4.0346 128.728 4.18636C129.219 4.31172 129.594 4.55254 129.861 4.90553V4.89893Z" fill="#231F20"/>
<path d="M137.48 0.105591H140.564C141.931 0.105591 142.992 0.471774 143.749 1.20414C144.504 1.93651 144.883 2.96248 144.883 4.28536C144.883 5.60823 144.504 6.6375 143.749 7.37317C142.995 8.10883 141.934 8.47832 140.564 8.47832H137.48V0.105591ZM140.468 7.23131C142.389 7.23131 143.351 6.24823 143.351 4.28536C143.351 2.32248 142.389 1.35259 140.468 1.35259H139.009V7.23131H140.468Z" fill="#231F20"/>
<path d="M148.618 6.84204V8.48162H146.958V6.84204H148.618Z" fill="#231F20"/>
<path d="M162.754 8.47832H161.093L159.657 5.80617C159.522 5.55215 159.357 5.37401 159.16 5.27174C158.962 5.16947 158.712 5.11669 158.412 5.11669H157.249V8.47832H155.744V0.105591H159.443C160.392 0.105591 161.113 0.316723 161.607 0.742287C162.101 1.16455 162.348 1.77816 162.348 2.5765C162.348 3.2165 162.167 3.74763 161.808 4.16329C161.449 4.57896 160.942 4.84948 160.283 4.97813C160.724 5.0969 161.08 5.4103 161.35 5.91504L162.75 8.48162L162.754 8.47832ZM160.5 3.61567C160.771 3.39794 160.902 3.06475 160.902 2.61279C160.902 2.16083 160.767 1.81774 160.5 1.60991C160.23 1.39878 159.809 1.29651 159.232 1.29651H157.239V3.94556H159.232C159.809 3.94556 160.234 3.8367 160.5 3.61897V3.61567Z" fill="#231F20"/>
<path d="M165.172 0.105591H166.7V8.47832H165.172V0.105591Z" fill="#231F20"/>
<path d="M176.747 0.105591V8.47832H175.598L171.114 2.63588V8.47832H169.691V0.105591H170.831L175.314 5.93813V0.105591H176.751H176.747Z" fill="#231F20"/>
<path d="M185.144 8.47832L181.267 4.58226V8.47832H179.739V0.105591H181.267V3.8466L184.99 0.105591H186.815L182.769 4.13031L187.002 8.47832H185.141H185.144Z" fill="#231F20"/>
<path d="M188.748 0.105591H190.277V8.47832H188.748V0.105591Z" fill="#231F20"/>
<path d="M201.424 0.105591V8.47832H200.074V2.94598L197.867 7.12575H196.845L194.628 3.00536L194.642 8.48162H193.291V0.105591H194.5L197.369 5.58184L200.229 0.105591H201.428H201.424Z" fill="#231F20"/>
<path d="M211.363 0.105591V5.0936C211.363 5.98101 211.179 6.70348 210.813 7.2676C210.444 7.82842 209.907 8.2144 209.195 8.41894C208.658 8.57069 208.388 8.86099 208.388 9.29646C208.388 9.51748 208.451 9.68573 208.579 9.80119C208.705 9.91666 208.882 9.97274 209.113 9.97274C209.327 9.97274 209.548 9.91996 209.778 9.81769L209.979 10.5435C209.647 10.7084 209.271 10.7942 208.853 10.7942C208.434 10.7942 208.066 10.6721 207.799 10.4313C207.529 10.1905 207.397 9.88367 207.397 9.51089C207.397 9.13811 207.529 8.8379 207.789 8.58388C206.675 8.56739 205.829 8.26389 205.252 7.67007C204.676 7.07626 204.386 6.21854 204.386 5.0936V0.105591H205.881V5.17607C205.881 5.89524 206.053 6.43957 206.392 6.80905C206.731 7.17853 207.229 7.35997 207.888 7.35997C208.546 7.35997 209.031 7.17523 209.37 6.80245C209.709 6.42967 209.881 5.88864 209.881 5.17607V0.105591H211.376H211.363Z" fill="#231F20"/>
<path d="M220.659 10.5468C220.327 10.7117 219.954 10.7975 219.546 10.7975C219.137 10.7975 218.768 10.6787 218.492 10.4412C218.215 10.2037 218.077 9.89026 218.077 9.50429C218.077 9.27336 218.129 9.06223 218.238 8.86429C218.343 8.66636 218.502 8.49151 218.706 8.34306V0.105591H220.234V8.47832H220.093C219.783 8.47832 219.536 8.55419 219.351 8.70924C219.167 8.86429 219.071 9.05893 219.071 9.29645C219.071 9.51748 219.137 9.68573 219.266 9.80119C219.398 9.91666 219.575 9.97274 219.806 9.97274C220.02 9.97274 220.241 9.91996 220.471 9.81769L220.663 10.5435L220.659 10.5468Z" fill="#231F20"/>
<path d="M227.623 0.105591H229.152V7.21812H233.052V8.47832H227.62V0.105591H227.623Z" fill="#231F20"/>
<path d="M235.391 0.105591H236.919V8.47832H235.391V0.105591Z" fill="#231F20"/>
<path d="M239.907 0.105591H245.504V1.3163H241.4V3.61897H245.267V4.81978H241.4V7.2676H245.504V8.47832H239.907V0.105591Z" fill="#231F20"/>
<path d="M250.06 1.36579H247.332V0.105591H254.316V1.36579H251.589V8.47832H250.06V1.36579Z" fill="#231F20"/>
<path d="M257.386 7.69647C256.793 7.10266 256.497 6.23503 256.497 5.0969V0.105591H257.993V5.17607C257.993 5.89524 258.164 6.43957 258.503 6.80905C258.842 7.17853 259.34 7.35997 259.999 7.35997C260.658 7.35997 261.142 7.17523 261.481 6.80245C261.82 6.42967 261.992 5.88864 261.992 5.17607V0.105591H263.487V5.0936C263.487 6.22514 263.191 7.08946 262.598 7.68987C262.005 8.28698 261.139 8.58718 260.002 8.58718C258.866 8.58718 257.986 8.29028 257.393 7.69647H257.386Z" fill="#231F20"/>
<path d="M274.108 0.105591L270.385 8.47832H269.14L265.418 0.105591H266.996L269.769 6.57812L272.556 0.105591H274.111H274.108Z" fill="#231F20"/>
<path d="M277.471 8.06262C276.875 7.71294 276.414 7.21479 276.091 6.5649C275.768 5.91501 275.603 5.15625 275.603 4.28533C275.603 3.41441 275.765 2.65565 276.084 2.01236C276.404 1.36576 276.865 0.870922 277.465 0.521233C278.064 0.171545 278.772 0 279.586 0C280.4 0 281.105 0.174844 281.704 0.521233C282.301 0.870922 282.758 1.36576 283.081 2.01236C283.401 2.65895 283.562 3.41441 283.562 4.28533C283.562 5.15625 283.401 5.91501 283.075 6.5649C282.752 7.21479 282.291 7.71294 281.694 8.06262C281.098 8.41231 280.396 8.58386 279.589 8.58386C278.782 8.58386 278.071 8.40901 277.471 8.06262ZM281.385 6.5682C281.816 6.03707 282.03 5.27831 282.03 4.28863C282.03 3.29895 281.816 2.54019 281.385 2.01566C280.953 1.48782 280.354 1.22721 279.589 1.22721C278.825 1.22721 278.212 1.49112 277.781 2.01566C277.349 2.54349 277.135 3.29895 277.135 4.28863C277.135 5.27831 277.349 6.03707 277.781 6.5682C278.212 7.09933 278.815 7.36325 279.589 7.36325C280.364 7.36325 280.956 7.09933 281.385 6.5682Z" fill="#231F20"/>
<path d="M287.321 8.32653C286.761 8.15169 286.286 7.90757 285.898 7.59087L286.408 6.47582C286.81 6.78593 287.235 7.01025 287.683 7.15211C288.131 7.29396 288.615 7.36654 289.136 7.36654C289.712 7.36654 290.157 7.26427 290.47 7.06304C290.783 6.8618 290.938 6.57809 290.938 6.21521C290.938 5.89851 290.793 5.65769 290.506 5.48944C290.216 5.32449 289.739 5.16614 289.067 5.01439C288.372 4.86264 287.805 4.69109 287.37 4.49316C286.935 4.29522 286.606 4.0412 286.385 3.7344C286.165 3.4243 286.053 3.03502 286.053 2.55998C286.053 2.08493 286.188 1.62967 286.454 1.2404C286.725 0.851122 287.103 0.550918 287.594 0.333187C288.085 0.115457 288.648 0.0065918 289.291 0.0065918C289.877 0.0065918 290.434 0.0956633 290.964 0.273806C291.495 0.45195 291.929 0.696072 292.269 1.00287L291.758 2.11792C291.014 1.52411 290.193 1.2272 289.291 1.2272C288.754 1.2272 288.329 1.33607 288.016 1.5538C287.703 1.77153 287.548 2.07503 287.548 2.46101C287.548 2.7843 287.687 3.03502 287.963 3.20987C288.24 3.38471 288.711 3.54636 289.373 3.69811C290.078 3.85646 290.648 4.03131 291.086 4.22594C291.524 4.42058 291.86 4.668 292.094 4.96821C292.328 5.26841 292.443 5.64779 292.443 6.10964C292.443 6.60778 292.312 7.04654 292.045 7.42262C291.781 7.7987 291.396 8.08901 290.895 8.29025C290.394 8.49148 289.801 8.59375 289.123 8.59375C288.484 8.59375 287.881 8.50798 287.321 8.33313V8.32653Z" fill="#231F20"/>
<path d="M306.447 8.47832H304.787L303.35 5.80617C303.215 5.55215 303.051 5.37401 302.853 5.27174C302.655 5.16947 302.405 5.11669 302.105 5.11669H300.942V8.47832H299.437V0.105591H303.136C304.085 0.105591 304.807 0.316723 305.301 0.742287C305.795 1.16455 306.042 1.77816 306.042 2.5765C306.042 3.2165 305.861 3.74763 305.502 4.16329C305.143 4.57896 304.635 4.84948 303.976 4.97813C304.418 5.0969 304.774 5.4103 305.044 5.91504L306.444 8.48162L306.447 8.47832ZM304.194 3.61567C304.464 3.39794 304.596 3.06475 304.596 2.61279C304.596 2.16083 304.461 1.81774 304.194 1.60991C303.924 1.39878 303.502 1.29651 302.926 1.29651H300.933V3.94556H302.926C303.502 3.94556 303.927 3.8367 304.194 3.61897V3.61567Z" fill="#231F20"/>
<path d="M308.868 0.105591H314.465V1.3163H310.361V3.61897H314.228V4.81978H310.361V7.2676H314.465V8.47832H308.868V0.105591Z" fill="#231F20"/>
<path d="M317.95 8.32653C317.39 8.15169 316.916 7.90757 316.527 7.59087L317.038 6.47582C317.44 6.78593 317.865 7.01025 318.313 7.15211C318.761 7.29396 319.245 7.36654 319.766 7.36654C320.342 7.36654 320.787 7.26427 321.1 7.06304C321.413 6.8618 321.567 6.57809 321.567 6.21521C321.567 5.89851 321.423 5.65769 321.136 5.48944C320.846 5.32449 320.368 5.16614 319.696 5.01439C319.001 4.86264 318.435 4.69109 318 4.49316C317.565 4.29522 317.236 4.0412 317.015 3.7344C316.794 3.4243 316.682 3.03502 316.682 2.55998C316.682 2.08493 316.817 1.62967 317.084 1.2404C317.354 0.851122 317.733 0.550918 318.224 0.333187C318.715 0.115457 319.278 0.0065918 319.92 0.0065918C320.507 0.0065918 321.063 0.0956633 321.594 0.273806C322.124 0.45195 322.559 0.696072 322.898 1.00287L322.388 2.11792C321.643 1.52411 320.823 1.2272 319.92 1.2272C319.383 1.2272 318.958 1.33607 318.646 1.5538C318.333 1.77153 318.178 2.07503 318.178 2.46101C318.178 2.7843 318.316 3.03502 318.593 3.20987C318.87 3.38471 319.341 3.54636 320.003 3.69811C320.708 3.85646 321.278 4.03131 321.716 4.22594C322.154 4.42058 322.49 4.668 322.724 4.96821C322.958 5.26841 323.073 5.64779 323.073 6.10964C323.073 6.60778 322.941 7.04654 322.674 7.42262C322.411 7.7987 322.025 8.08901 321.525 8.29025C321.024 8.49148 320.431 8.59375 319.752 8.59375C319.113 8.59375 318.51 8.50798 317.95 8.33313V8.32653Z" fill="#231F20"/>
<path d="M325.672 0.105591H329.325C330.218 0.105591 330.913 0.329919 331.414 0.775277C331.911 1.22393 332.162 1.85073 332.162 2.65898C332.162 3.46722 331.911 4.09732 331.414 4.54597C330.916 4.99463 330.221 5.22226 329.325 5.22226H327.204V8.47502H325.675V0.105591H325.672ZM329.134 4.05113C330.185 4.05113 330.712 3.59258 330.712 2.67217C330.712 2.20372 330.58 1.85733 330.32 1.633C330.06 1.40867 329.665 1.29321 329.134 1.29321H327.201V4.04783H329.134V4.05113Z" fill="#231F20"/>
<path d="M335.525 7.69647C334.932 7.10266 334.636 6.23503 334.636 5.0969V0.105591H336.131V5.17607C336.131 5.89524 336.302 6.43957 336.642 6.80905C336.981 7.17853 337.478 7.35997 338.137 7.35997C338.796 7.35997 339.28 7.17523 339.62 6.80245C339.959 6.42967 340.13 5.88864 340.13 5.17607V0.105591H341.626V5.0936C341.626 6.22514 341.329 7.08946 340.736 7.68987C340.144 8.28698 339.277 8.58718 338.141 8.58718C337.004 8.58718 336.125 8.29028 335.532 7.69647H335.525Z" fill="#231F20"/>
<path d="M350.83 4.89236C351.093 5.24865 351.228 5.68411 351.228 6.19875C351.228 6.91132 350.975 7.46884 350.464 7.87461C349.954 8.27708 349.252 8.48162 348.359 8.48162H344.564V0.105591H348.241C349.11 0.105591 349.792 0.29693 350.286 0.682906C350.78 1.06558 351.028 1.60331 351.028 2.29279C351.028 2.73485 350.912 3.12083 350.678 3.44412C350.444 3.76742 350.122 4.00495 349.713 4.1567C350.194 4.29195 350.57 4.53608 350.833 4.89236H350.83ZM346.057 3.63546H347.99C349.041 3.63546 349.568 3.24289 349.568 2.46104C349.568 2.06516 349.436 1.77156 349.176 1.58352C348.916 1.39548 348.521 1.29981 347.99 1.29981H346.057V3.63876V3.63546ZM349.4 6.99379C349.654 6.79585 349.779 6.48575 349.779 6.06679C349.779 5.64782 349.651 5.33442 349.394 5.12989C349.137 4.92535 348.735 4.81979 348.191 4.81979H346.057V7.2907H348.191C348.745 7.2907 349.147 7.19173 349.4 6.99379Z" fill="#231F20"/>
<path d="M353.847 0.105591H355.376V7.21812H359.276V8.47832H353.844V0.105591H353.847Z" fill="#231F20"/>
<path d="M361.615 0.105591H363.144V8.47832H361.615V0.105591Z" fill="#231F20"/>
<path d="M371.544 8.47832L367.667 4.58226V8.47832H366.138V0.105591H367.667V3.8466L371.389 0.105591H373.214L369.169 4.13031L373.402 8.47832H371.541H371.544Z" fill="#231F20"/>
<path d="M376.436 8.06262C375.84 7.71294 375.378 7.21479 375.056 6.5649C374.733 5.91501 374.568 5.15625 374.568 4.28533C374.568 3.41441 374.729 2.65565 375.049 2.01236C375.368 1.36576 375.83 0.870922 376.429 0.521233C377.029 0.171545 377.737 0 378.551 0C379.364 0 380.069 0.174844 380.669 0.521233C381.265 0.870922 381.723 1.36576 382.046 2.01236C382.365 2.65895 382.527 3.41441 382.527 4.28533C382.527 5.15625 382.365 5.91501 382.039 6.5649C381.716 7.21479 381.255 7.71294 380.659 8.06262C380.063 8.41231 379.361 8.58386 378.554 8.58386C377.747 8.58386 377.035 8.40901 376.436 8.06262ZM380.346 6.5682C380.778 6.03707 380.992 5.27831 380.992 4.28863C380.992 3.29895 380.778 2.54019 380.346 2.01566C379.914 1.48782 379.315 1.22721 378.551 1.22721C377.786 1.22721 377.174 1.49112 376.742 2.01566C376.311 2.54349 376.096 3.29895 376.096 4.28863C376.096 5.27831 376.311 6.03707 376.742 6.5682C377.174 7.09933 377.777 7.36325 378.551 7.36325C379.325 7.36325 379.918 7.09933 380.346 6.5682Z" fill="#231F20"/>
<path d="M386.282 8.32653C385.722 8.15169 385.248 7.90757 384.859 7.59087L385.37 6.47582C385.772 6.78593 386.197 7.01025 386.645 7.15211C387.093 7.29396 387.577 7.36654 388.097 7.36654C388.674 7.36654 389.118 7.26427 389.431 7.06304C389.744 6.8618 389.899 6.57809 389.899 6.21521C389.899 5.89851 389.754 5.65769 389.468 5.48944C389.178 5.32449 388.7 5.16614 388.028 5.01439C387.333 4.86264 386.766 4.69109 386.332 4.49316C385.897 4.29522 385.567 4.0412 385.347 3.7344C385.126 3.4243 385.014 3.03502 385.014 2.55998C385.014 2.08493 385.149 1.62967 385.416 1.2404C385.686 0.851122 386.065 0.550918 386.556 0.333187C387.046 0.115457 387.61 0.0065918 388.252 0.0065918C388.838 0.0065918 389.395 0.0956633 389.926 0.273806C390.456 0.45195 390.891 0.696072 391.23 1.00287L390.719 2.11792C389.975 1.52411 389.155 1.2272 388.252 1.2272C387.715 1.2272 387.29 1.33607 386.977 1.5538C386.664 1.77153 386.509 2.07503 386.509 2.46101C386.509 2.7843 386.648 3.03502 386.925 3.20987C387.201 3.38471 387.672 3.54636 388.334 3.69811C389.039 3.85646 389.609 4.03131 390.047 4.22594C390.486 4.42058 390.822 4.668 391.055 4.96821C391.289 5.26841 391.405 5.64779 391.405 6.10964C391.405 6.60778 391.273 7.04654 391.006 7.42262C390.743 7.7987 390.357 8.08901 389.856 8.29025C389.356 8.49148 388.763 8.59375 388.084 8.59375C387.445 8.59375 386.842 8.50798 386.282 8.33313V8.32653Z" fill="#231F20"/>
<path d="M399.436 8.32653C398.876 8.15169 398.402 7.90757 398.013 7.59087L398.523 6.47582C398.925 6.78593 399.35 7.01025 399.798 7.15211C400.246 7.29396 400.731 7.36654 401.251 7.36654C401.828 7.36654 402.272 7.26427 402.585 7.06304C402.898 6.8618 403.053 6.57809 403.053 6.21521C403.053 5.89851 402.908 5.65769 402.621 5.48944C402.332 5.32449 401.854 5.16614 401.182 5.01439C400.487 4.86264 399.92 4.69109 399.485 4.49316C399.05 4.29522 398.721 4.0412 398.5 3.7344C398.28 3.4243 398.168 3.03502 398.168 2.55998C398.168 2.08493 398.303 1.62967 398.57 1.2404C398.84 0.851122 399.219 0.550918 399.709 0.333187C400.2 0.115457 400.764 0.0065918 401.406 0.0065918C401.992 0.0065918 402.549 0.0956633 403.079 0.273806C403.61 0.45195 404.045 0.696072 404.384 1.00287L403.873 2.11792C403.129 1.52411 402.308 1.2272 401.406 1.2272C400.869 1.2272 400.444 1.33607 400.131 1.5538C399.818 1.77153 399.663 2.07503 399.663 2.46101C399.663 2.7843 399.802 3.03502 400.078 3.20987C400.355 3.38471 400.826 3.54636 401.488 3.69811C402.193 3.85646 402.763 4.03131 403.201 4.22594C403.639 4.42058 403.975 4.668 404.209 4.96821C404.443 5.26841 404.558 5.64779 404.558 6.10964C404.558 6.60778 404.427 7.04654 404.16 7.42262C403.896 7.7987 403.511 8.08901 403.01 8.29025C402.509 8.49148 401.916 8.59375 401.238 8.59375C400.599 8.59375 399.996 8.50798 399.436 8.33313V8.32653Z" fill="#231F20"/>
<path d="M407.154 0.105591H412.751V1.3163H408.647V3.61897H412.514V4.81978H408.647V7.2676H412.751V8.47832H407.154V0.105591Z" fill="#231F20"/>
<path d="M415.327 0.105591H416.856V8.47832H415.327V0.105591Z" fill="#231F20"/>
<path d="M428.003 0.105591V8.47832H426.653V2.94598L424.446 7.12575H423.424L421.207 3.00536L421.221 8.48162H419.87V0.105591H421.079L423.948 5.58184L426.808 0.105591H428.007H428.003Z" fill="#231F20"/>
<path d="M439.092 10.5467C438.742 10.7117 438.367 10.7975 437.965 10.7975C437.563 10.7975 437.197 10.6787 436.921 10.4412C436.644 10.2037 436.506 9.89356 436.506 9.51418C436.506 9.25356 436.572 9.00944 436.707 8.78511C436.842 8.56078 437.036 8.37604 437.286 8.23419L436.552 6.52533H432.483L431.64 8.48491H430.098L433.88 0.112183H435.125L438.907 8.48491H438.446C438.153 8.48491 437.922 8.56078 437.751 8.71583C437.58 8.87088 437.497 9.06552 437.497 9.30305C437.497 9.52408 437.56 9.69232 437.688 9.80779C437.813 9.92325 437.998 9.97933 438.235 9.97933C438.456 9.97933 438.673 9.92655 438.887 9.82428L439.088 10.55L439.092 10.5467ZM436.044 5.33112L434.516 1.76825L432.987 5.33112H436.048H436.044Z" fill="#231F20"/>
<path d="M187.424 26.6653L184.057 22.8781V26.6653H181.877V18.2926H184.057V21.8918L187.332 18.2926H189.881L186.192 22.2711L190.01 26.6653H187.424Z" fill="#231F20"/>
<path d="M196.865 24.9334H193.166L192.418 26.6686H190.224L194.124 18.2959H195.857L199.771 26.6686H197.613L196.865 24.9334ZM196.167 23.2938L195.017 20.6085L193.867 23.2938H196.167Z" fill="#231F20"/>
<path d="M208.915 18.2926V26.6653H207.301L203.483 21.8786V26.6653H201.454V18.2926H203.042L206.873 23.0794V18.2926H208.912H208.915Z" fill="#231F20"/>
<path d="M211.617 18.2926H215.02C215.945 18.2926 216.742 18.4576 217.408 18.7907C218.077 19.1239 218.587 19.6056 218.943 20.2324C219.299 20.8625 219.477 21.608 219.477 22.4724C219.477 23.3367 219.302 24.0922 218.95 24.7223C218.597 25.3524 218.086 25.834 217.421 26.1639C216.752 26.4971 215.952 26.662 215.02 26.662H211.617V18.2893V18.2926ZM214.868 24.907C215.692 24.907 216.304 24.7058 216.706 24.3C217.108 23.8975 217.312 23.2872 217.312 22.4724C217.312 21.6575 217.111 21.0505 216.706 20.6481C216.301 20.2456 215.692 20.0476 214.868 20.0476H213.801V24.9037H214.868V24.907Z" fill="#231F20"/>
<path d="M221.97 18.2926H224.151V26.6653H221.97V18.2926Z" fill="#231F20"/>
<path d="M226.856 18.2926H230.259C231.184 18.2926 231.981 18.4576 232.647 18.7907C233.316 19.1239 233.826 19.6056 234.182 20.2324C234.538 20.8625 234.716 21.608 234.716 22.4724C234.716 23.3367 234.541 24.0922 234.189 24.7223C233.836 25.3524 233.326 25.834 232.66 26.1639C231.995 26.4938 231.191 26.662 230.259 26.662H226.856V18.2893V18.2926ZM230.107 24.907C230.931 24.907 231.543 24.7058 231.945 24.3C232.347 23.8975 232.551 23.2872 232.551 22.4724C232.551 21.6575 232.35 21.0505 231.945 20.6481C231.54 20.2456 230.931 20.0476 230.107 20.0476H229.04V24.9037H230.107V24.907Z" fill="#231F20"/>
<path d="M242.582 24.9334H238.883L238.135 26.6686H235.941L239.841 18.2959H241.574L245.488 26.6686H243.33L242.582 24.9334ZM241.881 23.2938L240.731 20.6085L239.581 23.2938H241.881Z" fill="#231F20"/>
<path d="M247.965 20.0641H245.461V18.2959H252.672V20.0641H250.169V26.6686H247.962V20.0641H247.965Z" fill="#231F20"/>
<path d="M262.127 18.2926V23.1388C262.127 24.0724 261.929 24.8344 261.534 25.4183C261.138 26.0055 260.552 26.4014 259.778 26.6059C259.574 26.662 259.412 26.7577 259.297 26.8963C259.182 27.0348 259.126 27.1965 259.126 27.3779C259.126 27.7738 259.356 27.9717 259.814 27.9717C260.018 27.9717 260.226 27.9321 260.43 27.8529L260.644 28.7898C260.272 28.9416 259.854 29.0142 259.386 29.0142C258.918 29.0142 258.562 28.8888 258.273 28.6414C257.983 28.394 257.834 28.0773 257.834 27.6979C257.834 27.533 257.867 27.368 257.93 27.2064C257.993 27.0447 258.085 26.8996 258.203 26.7742C257.057 26.7346 256.191 26.4047 255.601 25.7878C255.011 25.1709 254.718 24.2868 254.718 23.1388V18.2926H256.853V23.2212C256.853 23.8216 256.988 24.2868 257.255 24.6101C257.525 24.9334 257.91 25.0983 258.417 25.0983C258.925 25.0983 259.31 24.9367 259.58 24.6101C259.85 24.2868 259.982 23.8216 259.982 23.2212V18.2926H262.13H262.127Z" fill="#231F20"/>
<path d="M166.868 22.4362H0V23.4258H166.868V22.4362Z" fill="#231F20"/>
<path d="M444 22.4362H277.132V23.4258H444V22.4362Z" fill="#231F20"/>
</g>
<defs>
<clipPath id="clip0_1_340">
<rect width="444" height="118" fill="white"/>
</clipPath>
</defs>
</svg>
