<svg width="424" height="120" viewBox="0 0 424 120" fill="none" xmlns="http://www.w3.org/2000/svg"><g clip-path="url(#clip0_33_82)" fill="#203061"><path d="M.018 94.565V22.166h23.854c3.822 0 7.297.557 10.416 1.663 3.12 1.106 5.786 2.696 8 4.779 2.214 2.074 3.927 4.56 5.132 7.442 1.203 2.882 1.81 6.103 1.81 9.654v25.242c0 3.552-.606 6.788-1.81 9.703-1.205 2.913-2.918 5.4-5.132 7.442-2.214 2.042-4.88 3.64-8 4.779-3.119 1.138-6.594 1.71-10.416 1.71H.018v-.015zm23.854-14.078c3.087 0 5.568-.872 7.45-2.615 1.875-1.744 2.82-4.052 2.82-6.942V45.688c0-2.817-.937-5.093-2.82-6.837-1.882-1.743-4.363-2.615-7.45-2.615h-8.76v44.243h8.76v.008zM64.64 94.565V22.166h45.801v13.069H79.742v15.684h27.176v13.069H79.742V81.48h30.699v13.069H64.639v.016zm61.195 0V22.166h24.258c3.758 0 7.144.436 10.166 1.308 3.022.872 5.584 2.115 7.701 3.72 2.117 1.607 3.741 3.553 4.881 5.829 1.139 2.276 1.713 4.827 1.713 7.644 0 4.488-1.261 8.113-3.774 10.857-2.513 2.753-5.988 4.327-10.416 4.722v1.106c4.832.34 8.622 1.946 11.378 4.828 2.747 2.881 4.129 6.667 4.129 11.365 0 3.22-.59 6.119-1.762 8.694a18.67 18.67 0 01-5.034 6.635c-2.182 1.849-4.832 3.253-7.951 4.222-3.12.968-6.594 1.46-10.416 1.46h-24.865l-.008.009zm14.594-60.331v16.79h9.462c2.885 0 5.188-.767 6.893-2.309 1.713-1.542 2.57-3.584 2.57-6.135 0-2.55-.84-4.576-2.513-6.086-1.681-1.51-3.992-2.26-6.95-2.26h-9.462zm0 28.858v19.405h9.664c3.354 0 5.956-.84 7.798-2.51 1.843-1.671 2.772-4.053 2.772-7.136 0-3.084-.921-5.481-2.772-7.192-1.85-1.712-4.444-2.567-7.798-2.567h-9.664zm42.989 31.473l19.33-72.399h20.129l18.925 72.399h-15.297l-3.822-16.588h-20.234l-3.823 16.588h-15.208zm36.436-28.358l-5.535-23.828c-.202-1.01-.404-2.091-.606-3.27a66.605 66.605 0 01-.501-3.366c-.137-1.138-.267-2.308-.404-3.52h-.606a57.363 57.363 0 01-.501 3.52 204.213 204.213 0 01-.452 3.366c-.17 1.17-.388 2.26-.655 3.27l-5.438 23.828h14.698zm28.986-44.041h53.349v14.078h-19.127v58.32h-15.095v-58.32H248.84V22.166zm60.396 72.399l19.329-72.399h20.129l18.925 72.399h-15.297L348.5 77.977h-20.234l-3.822 16.588h-15.208zm36.436-28.358l-5.536-23.828c-.202-1.01-.404-2.091-.606-3.27a67.761 67.761 0 01-.501-3.366c-.137-1.138-.266-2.308-.404-3.52h-.606a57.363 57.363 0 01-.501 3.52 204.213 204.213 0 01-.452 3.366c-.17 1.17-.388 2.26-.655 3.27l-5.438 23.828h14.699zm33.018 28.358V81.496h15.094V35.243H378.69V22.174h45.292v13.069h-15.095v46.253h15.095v13.069H378.69zm45.292-91.021h-83.159v.944h83.159v-.944zm-340.805 0H.017v.944h83.16v-.944zm106.375 116.23v-2.115c5.155-3.786 6.658-5.093 6.658-6.635 0-1.09-1.002-1.639-2.06-1.639-1.415 0-2.513.565-3.362 1.453l-1.527-1.776c1.228-1.412 3.095-2.058 4.848-2.058 2.683 0 4.816 1.509 4.816 4.012 0 2.147-1.777 4.012-5.155 6.393h5.244v2.357h-9.47l.008.008zm16.759-12.762c3.588 0 5.212 3.245 5.212 6.482S209.899 120 206.311 120c-3.588 0-5.212-3.261-5.212-6.506s1.608-6.482 5.212-6.482zm0 2.373c-1.81 0-2.489 1.792-2.489 4.109s.679 4.125 2.489 4.125c1.81 0 2.473-1.808 2.473-4.125s-.679-4.109-2.473-4.109zm7.208 10.389v-2.115c5.156-3.786 6.659-5.093 6.659-6.635 0-1.09-1.002-1.639-2.061-1.639-1.414 0-2.513.565-3.361 1.453l-1.528-1.776c1.229-1.412 3.095-2.058 4.849-2.058 2.683 0 4.816 1.509 4.816 4.012 0 2.147-1.778 4.012-5.156 6.393h5.245v2.357h-9.471l.008.008zm12.687-3.544c.865.904 2.246 1.437 3.475 1.437 1.527 0 2.375-.662 2.375-1.622 0-1.017-.775-1.494-2.529-1.494-.525 0-1.382 0-1.568.016v-2.34c.227.016 1.075.016 1.568.016 1.398 0 2.319-.452 2.319-1.397 0-1.001-1.018-1.509-2.343-1.509-1.228 0-2.319.468-3.208 1.315l-1.325-1.662c1.018-1.147 2.602-2.002 4.816-2.002 2.941 0 4.759 1.316 4.759 3.414 0 1.582-1.357 2.624-2.755 2.866 1.285.129 2.941 1.13 2.941 3.019 0 2.171-1.947 3.697-4.961 3.697-2.32 0-4.041-.888-4.962-2.018l1.398-1.752v.016zM92.51 5.36a3.56 3.56 0 002.513 1.04c.695 0 1.123-.298 1.123-.67 0-.452-.509-.621-1.35-.799-1.3-.258-3.118-.59-3.118-2.454 0-1.324 1.123-2.47 3.143-2.47 1.26 0 2.36.38 3.2 1.098l-1.107 1.453c-.663-.541-1.527-.815-2.222-.815-.695 0-.93.274-.93.613 0 .412.485.557 1.358.718 1.301.275 3.095.646 3.095 2.43 0 1.582-1.172 2.632-3.28 2.632-1.593 0-2.708-.493-3.5-1.251L92.51 5.36zm12.097 2.631l-.404-1.194h-3.273l-.404 1.194H98.32l2.974-7.87h2.553l2.974 7.87h-2.214zm-2.045-6.102l-1.099 3.196h2.207l-1.108-3.196zm6.966 6.102l-2.966-7.87h2.303l1.94 5.675L112.752.12h2.303l-2.973 7.87h-2.554zm6.109 0V.121h2.028v7.87h-2.028zm5.584 0l-2.966-7.87h2.303l1.94 5.675L124.445.12h2.303l-2.974 7.87h-2.553zm11.555 0l-.404-1.194H129.1l-.404 1.194h-2.206l2.965-7.87h2.554l2.973 7.87h-2.206zm-2.044-6.102l-1.099 3.196h2.206l-1.107-3.196zm4.832 6.102V.121h2.028v6.103h3.168V7.99h-5.196zm6.255 0V.121h3.305c2.481 0 4.266 1.485 4.266 3.931 0 2.446-1.785 3.94-4.25 3.94h-3.321zm2.028-1.767h1.277c1.382 0 2.182-1.001 2.182-2.172 0-1.17-.736-2.163-2.174-2.163h-1.285v4.335zm8.711 1.767V4.82l-2.99-4.698h2.295l1.713 2.906 1.689-2.906h2.303l-2.974 4.698v3.172h-2.036zm5.592 0V.121h4.469c1.559 0 2.303 1.017 2.303 2.002 0 .985-.606 1.639-1.35 1.808.84.13 1.503.928 1.503 1.921 0 1.147-.768 2.14-2.319 2.14h-4.606zm2.028-4.827h1.972a.668.668 0 00.695-.686c0-.387-.283-.67-.695-.67h-1.972v1.356zm0 3.14h2.045c.484 0 .775-.298.775-.718 0-.404-.282-.743-.775-.743h-2.045v1.461zm6.012 1.687V.121h2.029v7.87h-2.029zm3.451-7.87h2.068v4.617c0 .929.493 1.607 1.592 1.607 1.099 0 1.584-.67 1.584-1.607V.121h2.069v4.674c0 1.485-.614 2.559-1.867 3.043-.848.315-1.123.614-1.123.944 0 .226.186.356.404.356.105 0 .21-.025.307-.073l.307.896c-.331.178-.662.226-1.147.226-.663 0-1.455-.25-1.455-.993 0-.46.364-.823.954-1.065h-.033c-2.529 0-3.66-1.389-3.66-3.326V.12zm13.519 7.87V1.89h-2.206V.12h6.44v1.77h-2.198v6.1h-2.036zm10.642 0l-.404-1.194h-3.273l-.404 1.194h-2.206l2.966-7.87h2.553l2.974 7.87h-2.206zm-2.044-6.102l-1.099 3.196h2.206l-1.107-3.196zm9.228 6.102l-1.325-2.663h-1.043V7.99h-2.028V.121h3.943c1.746 0 2.74 1.154 2.74 2.624 0 1.372-.841 2.098-1.568 2.357l1.608 2.89h-2.327zm-.76-6.159h-1.608V3.6h1.608c.534 0 .978-.339.978-.888 0-.549-.452-.888-.978-.888v.008zm6.336 6.159V4.82l-2.99-4.698h2.295l1.713 2.906 1.689-2.906h2.303l-2.974 4.698v3.172h-2.036zm5.583 0V.121h4.469c1.56 0 2.303 1.017 2.303 2.002 0 .985-.606 1.639-1.349 1.808.84.13 1.503.928 1.503 1.921 0 1.147-.768 2.14-2.32 2.14h-4.606zm2.029-4.827h1.971a.668.668 0 00.695-.686c0-.387-.282-.67-.695-.67h-1.971v1.356zm0 3.14h2.044c.485 0 .776-.298.776-.718 0-.404-.283-.743-.776-.743h-2.044v1.461zm6.012-6.183h2.068v4.617c0 .929.493 1.607 1.592 1.607 1.099 0 1.584-.67 1.584-1.607V.121h2.069v4.674c0 1.485-.614 2.559-1.867 3.043-.848.315-1.123.614-1.123.944 0 .226.186.356.404.356.105 0 .21-.025.307-.073l.307.896c-.331.178-.662.226-1.147.226-.663 0-1.455-.25-1.455-.993 0-.46.364-.823.954-1.065h-.033c-2.529 0-3.66-1.389-3.66-3.326V.12zm11.757 7.87V.121h2.029v7.87h-2.029zm7.847 0l-1.326-2.663h-1.042V7.99h-2.028V.121h3.943c1.746 0 2.74 1.154 2.74 2.624 0 1.372-.841 2.098-1.568 2.357l1.608 2.89h-2.327zm-.76-6.159h-1.608V3.6h1.608c.533 0 .978-.339.978-.888 0-.549-.453-.888-.978-.888v.008zm14.117 6.159V2.68l-1.996 5.311h-.897l-1.988-5.311v5.31h-2.028V.121h2.82l1.641 4.464 1.656-4.464h2.82v7.87h-2.028zm3.451 0V.121h5.777v1.711h-3.741V3.14h3.661v1.72h-3.661v1.412h3.741v1.711h-5.777v.008zm11.353 0l-1.325-2.663h-1.043V7.99h-2.028V.121h3.944c1.745 0 2.739 1.154 2.739 2.624 0 1.372-.84 2.098-1.568 2.357l1.608 2.89h-2.327zm-.759-6.159h-1.609V3.6h1.609c.533 0 .977-.339.977-.888 0-.549-.452-.888-.977-.888v.008zm4.177-1.711h2.069v4.617c0 .929.493 1.607 1.592 1.607 1.099 0 1.584-.67 1.584-1.607V.121h2.068v4.674c0 1.485-.614 2.559-1.866 3.043-.849.315-1.124.614-1.124.944 0 .226.186.356.404.356a.688.688 0 00.308-.073l.307.896c-.332.178-.663.226-1.148.226-.662 0-1.454-.25-1.454-.993 0-.46.363-.823.953-1.065h-.032c-2.529 0-3.661-1.389-3.661-3.326V.12zm16.154 7.87l-1.326-2.663h-1.042V7.99h-2.028V.121h3.943c1.746 0 2.739 1.154 2.739 2.624 0 1.372-.84 2.098-1.567 2.357l1.608 2.89h-2.327zm-.76-6.159h-1.608V3.6h1.608c.533 0 .978-.339.978-.888 0-.549-.453-.888-.978-.888v.008zm4.178 6.159V.121h2.028v7.87h-2.028zm8.816 0l-3.329-4.754V7.99h-2.029V.121h2.093l3.192 4.529V.12h2.045v7.87h-1.972zm8.016 0l-2.069-2.962-.533.662v2.3h-2.028V.121h2.028v3.237l2.424-3.237h2.505l-3.062 3.681 3.224 4.19h-2.489zm3.095 0V.121h2.028v7.87h-2.028zm10.359 0V2.68l-1.995 5.311h-.897l-1.988-5.311v5.31h-2.029V.121h2.821l1.64 4.464 1.657-4.464h2.82v7.87h-2.029zm3.459-7.87h2.069v4.617c0 .929.493 1.607 1.592 1.607 1.099 0 1.583-.67 1.583-1.607V.121h2.069v4.674c0 1.485-.614 2.559-1.867 3.043-.848.315-1.123.614-1.123.944 0 .226.186.356.404.356.105 0 .21-.025.307-.073l.307.896c-.331.178-.662.226-1.147.226-.663 0-1.455-.25-1.455-.993 0-.46.364-.823.954-1.065h-.032c-2.53 0-3.661-1.389-3.661-3.326V.12z"/></g><defs><clipPath id="clip0_33_82"><path fill="#fff" d="M0 0h424v120H0z"/></clipPath></defs></svg>